<svg xmlns="http://www.w3.org/2000/svg" xmlns:ev="http://www.w3.org/2001/xml-events" xmlns:xlink="http://www.w3.org/1999/xlink" baseProfile="full" height="300" version="1.1" width="800"><defs><style type="text/css"><![CDATA[.background path {fill: #808080; fill-opacity: 0}.background path:nth-child(odd) {fill-opacity: .1}.axes {font-size: 14px}.x-axis .tick .lab {font-weight: bold; dominant-baseline: hanging}.axes, .tree {font-size: 14px; text-anchor: middle}.axes line, .edge {stroke: black; fill: none}.y-axis .grid {stroke: #FAFAFA}.node > .sym {fill: black; stroke: none}.site > .sym {stroke: black}.mut text {fill: red; font-style: italic}.mut.extra text {fill: hotpink}.mut line {fill: none; stroke: none}.mut .sym {fill: none; stroke: red}.mut.extra .sym {stroke: hotpink}.node .mut .sym {stroke-width: 1.5px}.tree text, .tree-sequence text {dominant-baseline: central}.plotbox .lab.lft {text-anchor: end}.plotbox .lab.rgt {text-anchor: start}]]></style></defs><g class="tree-sequence"><g class="axes"><g class="x-axis"><g transform="translate(418.4 300)"><text class="lab" text-anchor="middle" transform="translate(0 -11)">Genome position</text></g><line x1="56.8" x2="780" y1="263.2" y2="263.2"/><g class="ticks"><g class="tick" transform="translate(56.8 263.2)"><line x1="0" x2="0" y1="-5" y2="5"/><g transform="translate(0 6)"><text class="lab">0</text></g></g><g class="tick" transform="translate(237.6 263.2)"><line x1="0" x2="0" y1="-5" y2="5"/><g transform="translate(0 6)"><text class="lab">858</text></g></g><g class="tick" transform="translate(418.4 263.2)"><line x1="0" x2="0" y1="-5" y2="5"/><g transform="translate(0 6)"><text class="lab">5843</text></g></g><g class="tick" transform="translate(599.2 263.2)"><line x1="0" x2="0" y1="-5" y2="5"/><g transform="translate(0 6)"><text class="lab">5856</text></g></g><g class="tick" transform="translate(780 263.2)"><line x1="0" x2="0" y1="-5" y2="5"/><g transform="translate(0 6)"><text class="lab">10000</text></g></g></g></g><g class="y-axis"><g transform="translate(0 115.7)"><text class="lab" text-anchor="middle" transform="translate(11) rotate(-90)">Time (generations)</text></g><line x1="56.8" x2="56.8" y1="221.4" y2="10"/><g class="ticks"><g class="tick" transform="translate(56.8 221.4)"><line x1="0" x2="-5" y1="0" y2="0"/><g transform="translate(-6 0)"><text class="lab" text-anchor="end">0</text></g></g><g class="tick" transform="translate(56.8 209.267)"><line x1="0" x2="-5" y1="0" y2="0"/><g transform="translate(-6 0)"><text class="lab" text-anchor="end">1000</text></g></g><g class="tick" transform="translate(56.8 197.135)"><line x1="0" x2="-5" y1="0" y2="0"/><g transform="translate(-6 0)"><text class="lab" text-anchor="end">2000</text></g></g><g class="tick" transform="translate(56.8 185.002)"><line x1="0" x2="-5" y1="0" y2="0"/><g transform="translate(-6 0)"><text class="lab" text-anchor="end">3000</text></g></g><g class="tick" transform="translate(56.8 172.87)"><line x1="0" x2="-5" y1="0" y2="0"/><g transform="translate(-6 0)"><text class="lab" text-anchor="end">4000</text></g></g><g class="tick" transform="translate(56.8 160.737)"><line x1="0" x2="-5" y1="0" y2="0"/><g transform="translate(-6 0)"><text class="lab" text-anchor="end">5000</text></g></g><g class="tick" transform="translate(56.8 15.1455)"><line x1="0" x2="-5" y1="0" y2="0"/><g transform="translate(-6 0)"><text class="lab" text-anchor="end">17000</text></g></g></g></g></g><g class="plotbox trees"><g class="tree t0" transform="translate(56.8 0)"><g class="plotbox"><g class="c2 node n13 p0 root" transform="translate(90.4 26.8)"><g class="a13 c2 node n9 p0" transform="translate(-41.0667 162.834)"><g class="a9 i0 leaf node n0 p0 sample" transform="translate(-17.6 31.7662)"><path class="edge" d="M 0 0 V -31.7662 H 17.6"/><rect class="sym" height="6" width="6" x="-3" y="-3"/><text class="lab" transform="translate(0 11)">0</text></g><g class="a9 c2 node n8 p0" transform="translate(17.6 2.77566)"><g class="a8 i2 leaf node n4 p0 sample" transform="translate(-11.7333 28.9905)"><path class="edge" d="M 0 0 V -28.9905 H 11.7333"/><rect class="sym" height="6" width="6" x="-3" y="-3"/><text class="lab" transform="translate(0 11)">4</text></g><g class="a8 i2 leaf node n5 p0 sample" transform="translate(11.7333 28.9905)"><path class="edge" d="M 0 0 V -28.9905 H -11.7333"/><rect class="sym" height="6" width="6" x="-3" y="-3"/><text class="lab" transform="translate(0 11)">5</text></g><path class="edge" d="M 0 0 V -2.77566 H -17.6"/><circle class="sym" cx="0" cy="0" r="3"/><text class="lab rgt" transform="translate(3 -7.0)">8</text></g><path class="edge" d="M 0 0 V -162.834 H 41.0667"/><circle class="sym" cx="0" cy="0" r="3"/><text class="lab lft" transform="translate(-3 -7.0)">9</text></g><g class="a13 c2 node n11 p0" transform="translate(41.0667 139.448)"><g class="a11 i1 leaf node n3 p0 sample" transform="translate(17.6 55.1521)"><path class="edge" d="M 0 0 V -55.1521 H -17.6"/><rect class="sym" height="6" width="6" x="-3" y="-3"/><text class="lab" transform="translate(0 11)">3</text></g><g class="a11 c2 node n6 p0" transform="translate(-17.6 50.4492)"><g class="a6 i0 leaf node n1 p0 sample" transform="translate(-11.7333 4.70298)"><path class="edge" d="M 0 0 V -4.70298 H 11.7333"/><rect class="sym" height="6" width="6" x="-3" y="-3"/><text class="lab" transform="translate(0 11)">1</text></g><g class="a6 i1 leaf node n2 p0 sample" transform="translate(11.7333 4.70298)"><path class="edge" d="M 0 0 V -4.70298 H -11.7333"/><rect class="sym" height="6" width="6" x="-3" y="-3"/><text class="lab" transform="translate(0 11)">2</text></g><path class="edge" d="M 0 0 V -50.4492 H 17.6"/><circle class="sym" cx="0" cy="0" r="3"/><text class="lab lft" transform="translate(-3 -7.0)">6</text></g><path class="edge" d="M 0 0 V -139.448 H -41.0667"/><circle class="sym" cx="0" cy="0" r="3"/><text class="lab rgt" transform="translate(3 -7.0)">11</text></g><circle class="sym" cx="0" cy="0" r="3"/><text class="lab" transform="translate(0 -11)">13</text></g></g></g><g class="tree t1" transform="translate(237.6 0)"><g class="plotbox"><g class="c2 node n13 p0 root" transform="translate(90.4 26.8)"><g class="a13 c2 node n9 p0" transform="translate(-41.0667 162.834)"><g class="a9 i0 leaf node n0 p0 sample" transform="translate(-17.6 31.7662)"><path class="edge" d="M 0 0 V -31.7662 H 17.6"/><rect class="sym" height="6" width="6" x="-3" y="-3"/><text class="lab" transform="translate(0 11)">0</text></g><g class="a9 c2 node n8 p0" transform="translate(17.6 2.77566)"><g class="a8 i2 leaf node n4 p0 sample" transform="translate(-11.7333 28.9905)"><path class="edge" d="M 0 0 V -28.9905 H 11.7333"/><rect class="sym" height="6" width="6" x="-3" y="-3"/><text class="lab" transform="translate(0 11)">4</text></g><g class="a8 i2 leaf node n5 p0 sample" transform="translate(11.7333 28.9905)"><path class="edge" d="M 0 0 V -28.9905 H -11.7333"/><rect class="sym" height="6" width="6" x="-3" y="-3"/><text class="lab" transform="translate(0 11)">5</text></g><path class="edge" d="M 0 0 V -2.77566 H -17.6"/><circle class="sym" cx="0" cy="0" r="3"/><text class="lab rgt" transform="translate(3 -7.0)">8</text></g><path class="edge" d="M 0 0 V -162.834 H 41.0667"/><circle class="sym" cx="0" cy="0" r="3"/><text class="lab lft" transform="translate(-3 -7.0)">9</text></g><g class="a13 c2 node n11 p0" transform="translate(41.0667 139.448)"><g class="a11 i1 leaf node n2 p0 sample" transform="translate(17.6 55.1521)"><path class="edge" d="M 0 0 V -55.1521 H -17.6"/><rect class="sym" height="6" width="6" x="-3" y="-3"/><text class="lab" transform="translate(0 11)">2</text></g><g class="a11 c2 node n10 p0" transform="translate(-17.6 10.4634)"><g class="a10 i0 leaf node n1 p0 sample" transform="translate(-11.7333 44.6888)"><path class="edge" d="M 0 0 V -44.6888 H 11.7333"/><rect class="sym" height="6" width="6" x="-3" y="-3"/><text class="lab" transform="translate(0 11)">1</text></g><g class="a10 i1 leaf node n3 p0 sample" transform="translate(11.7333 44.6888)"><path class="edge" d="M 0 0 V -44.6888 H -11.7333"/><rect class="sym" height="6" width="6" x="-3" y="-3"/><text class="lab" transform="translate(0 11)">3</text></g><path class="edge" d="M 0 0 V -10.4634 H 17.6"/><circle class="sym" cx="0" cy="0" r="3"/><text class="lab lft" transform="translate(-3 -7.0)">10</text></g><path class="edge" d="M 0 0 V -139.448 H -41.0667"/><circle class="sym" cx="0" cy="0" r="3"/><text class="lab rgt" transform="translate(3 -7.0)">11</text></g><circle class="sym" cx="0" cy="0" r="3"/><text class="lab" transform="translate(0 -11)">13</text></g></g></g><g class="tree t2" transform="translate(418.4 0)"><g class="plotbox"><g class="c2 node n13 p0 root" transform="translate(97.7333 26.8)"><g class="a13 c2 node n9 p0" transform="translate(-39.6 162.834)"><g class="a9 i0 leaf node n0 p0 sample" transform="translate(-26.4 31.7662)"><path class="edge" d="M 0 0 V -31.7662 H 26.4"/><rect class="sym" height="6" width="6" x="-3" y="-3"/><text class="lab" transform="translate(0 11)">0</text></g><g class="a9 c2 node n8 p0" transform="translate(26.4 2.77566)"><g class="a8 i2 leaf node n5 p0 sample" transform="translate(17.6 28.9905)"><path class="edge" d="M 0 0 V -28.9905 H -17.6"/><rect class="sym" height="6" width="6" x="-3" y="-3"/><text class="lab" transform="translate(0 11)">5</text></g><g class="a8 c2 node n7 p0" transform="translate(-17.6 4.50533)"><g class="a7 i1 leaf node n2 p0 sample" transform="translate(-11.7333 24.4852)"><path class="edge" d="M 0 0 V -24.4852 H 11.7333"/><rect class="sym" height="6" width="6" x="-3" y="-3"/><text class="lab" transform="translate(0 11)">2</text></g><g class="a7 i2 leaf node n4 p0 sample" transform="translate(11.7333 24.4852)"><path class="edge" d="M 0 0 V -24.4852 H -11.7333"/><rect class="sym" height="6" width="6" x="-3" y="-3"/><text class="lab" transform="translate(0 11)">4</text></g><path class="edge" d="M 0 0 V -4.50533 H 17.6"/><circle class="sym" cx="0" cy="0" r="3"/><text class="lab lft" transform="translate(-3 -7.0)">7</text></g><path class="edge" d="M 0 0 V -2.77566 H -26.4"/><circle class="sym" cx="0" cy="0" r="3"/><text class="lab rgt" transform="translate(3 -7.0)">8</text></g><path class="edge" d="M 0 0 V -162.834 H 39.6"/><circle class="sym" cx="0" cy="0" r="3"/><text class="lab lft" transform="translate(-3 -7.0)">9</text></g><g class="a13 c2 node n10 p0" transform="translate(39.6 149.911)"><g class="a10 i0 leaf node n1 p0 sample" transform="translate(-11.7333 44.6888)"><path class="edge" d="M 0 0 V -44.6888 H 11.7333"/><rect class="sym" height="6" width="6" x="-3" y="-3"/><text class="lab" transform="translate(0 11)">1</text></g><g class="a10 i1 leaf node n3 p0 sample" transform="translate(11.7333 44.6888)"><path class="edge" d="M 0 0 V -44.6888 H -11.7333"/><rect class="sym" height="6" width="6" x="-3" y="-3"/><text class="lab" transform="translate(0 11)">3</text></g><path class="edge" d="M 0 0 V -149.911 H -39.6"/><circle class="sym" cx="0" cy="0" r="3"/><text class="lab rgt" transform="translate(3 -7.0)">10</text></g><circle class="sym" cx="0" cy="0" r="3"/><text class="lab" transform="translate(0 -11)">13</text></g></g></g><g class="tree t3" transform="translate(599.2 0)"><g class="plotbox"><g class="c2 node n12 p0 root" transform="translate(97.7333 66.6181)"><g class="a12 c2 node n9 p0" transform="translate(-39.6 123.016)"><g class="a9 i0 leaf node n0 p0 sample" transform="translate(-26.4 31.7662)"><path class="edge" d="M 0 0 V -31.7662 H 26.4"/><rect class="sym" height="6" width="6" x="-3" y="-3"/><text class="lab" transform="translate(0 11)">0</text></g><g class="a9 c2 node n8 p0" transform="translate(26.4 2.77566)"><g class="a8 i2 leaf node n5 p0 sample" transform="translate(17.6 28.9905)"><path class="edge" d="M 0 0 V -28.9905 H -17.6"/><rect class="sym" height="6" width="6" x="-3" y="-3"/><text class="lab" transform="translate(0 11)">5</text></g><g class="a8 c2 node n7 p0" transform="translate(-17.6 4.50533)"><g class="a7 i1 leaf node n2 p0 sample" transform="translate(-11.7333 24.4852)"><path class="edge" d="M 0 0 V -24.4852 H 11.7333"/><rect class="sym" height="6" width="6" x="-3" y="-3"/><text class="lab" transform="translate(0 11)">2</text></g><g class="a7 i2 leaf node n4 p0 sample" transform="translate(11.7333 24.4852)"><path class="edge" d="M 0 0 V -24.4852 H -11.7333"/><rect class="sym" height="6" width="6" x="-3" y="-3"/><text class="lab" transform="translate(0 11)">4</text></g><path class="edge" d="M 0 0 V -4.50533 H 17.6"/><circle class="sym" cx="0" cy="0" r="3"/><text class="lab lft" transform="translate(-3 -7.0)">7</text></g><path class="edge" d="M 0 0 V -2.77566 H -26.4"/><circle class="sym" cx="0" cy="0" r="3"/><text class="lab rgt" transform="translate(3 -7.0)">8</text></g><path class="edge" d="M 0 0 V -123.016 H 39.6"/><circle class="sym" cx="0" cy="0" r="3"/><text class="lab lft" transform="translate(-3 -7.0)">9</text></g><g class="a12 c2 node n10 p0" transform="translate(39.6 110.093)"><g class="a10 i0 leaf node n1 p0 sample" transform="translate(-11.7333 44.6888)"><path class="edge" d="M 0 0 V -44.6888 H 11.7333"/><rect class="sym" height="6" width="6" x="-3" y="-3"/><text class="lab" transform="translate(0 11)">1</text></g><g class="a10 i1 leaf node n3 p0 sample" transform="translate(11.7333 44.6888)"><path class="edge" d="M 0 0 V -44.6888 H -11.7333"/><rect class="sym" height="6" width="6" x="-3" y="-3"/><text class="lab" transform="translate(0 11)">3</text></g><path class="edge" d="M 0 0 V -110.093 H -39.6"/><circle class="sym" cx="0" cy="0" r="3"/><text class="lab rgt" transform="translate(3 -7.0)">10</text></g><circle class="sym" cx="0" cy="0" r="3"/><text class="lab" transform="translate(0 -11)">12</text></g></g></g></g></g></svg>