<?xml version="1.0" encoding="utf-8" ?>
<svg xmlns="http://www.w3.org/2000/svg" xmlns:ev="http://www.w3.org/2001/xml-events" xmlns:xlink="http://www.w3.org/1999/xlink" baseProfile="full" height="200" version="1.1" width="600">
  <defs>
    <style type="text/css"><![CDATA[.background path {fill: #808080; fill-opacity: 0}.background path:nth-child(odd) {fill-opacity: .1}.axes {font-size: 14px}.x-axis .tick .lab {font-weight: bold; dominant-baseline: hanging}.axes, .tree {font-size: 14px; text-anchor: middle}.axes line, .edge {stroke: black; fill: none}.axes .ax-skip {stroke-dasharray: 4}.y-axis .grid {stroke: #FAFAFA}.node > .sym {fill: black; stroke: none}.site > .sym {stroke: black}.mut text {fill: red; font-style: italic}.mut.extra text {fill: hotpink}.mut line {fill: none; stroke: none}.mut .sym {fill: none; stroke: red}.mut.extra .sym {stroke: hotpink}.node .mut .sym {stroke-width: 1.5px}.tree text, .tree-sequence text {dominant-baseline: central}.plotbox .lab.lft {text-anchor: end}.plotbox .lab.rgt {text-anchor: start}]]></style>
  </defs>
  <g class="tree-sequence">
    <g class="background">
      <path d="M56.8,0 l174.4,0 l0,138.2 l-87.2,25 l0,5 l-87.2,0 l0,-5 l0,-25 l0,-138.2z"/>
      <path d="M231.2,0 l174.4,0 l0,138.2 l87.2,25 l0,5 l-348.8,0 l0,-5 l87.2,-25 l0,-138.2z"/>
      <path d="M405.6,0 l174.4,0 l0,138.2 l0,25 l0,5 l-87.2,0 l0,-5 l-87.2,-25 l0,-138.2z"/>
    </g>
    <g class="axes">
      <g class="x-axis">
        <g class="title" transform="translate(318.4 200)">
          <text class="lab" text-anchor="middle" transform="translate(0 -11)">Genome position</text>
        </g>
        <line class="ax-line" x1="56.8" x2="580" y1="163.2" y2="163.2"/>
        <g class="ticks">
          <g class="tick" transform="translate(56.8 163.2)">
            <line x1="0" x2="0" y1="0" y2="5"/>
            <g transform="translate(0 6)">
              <text class="lab">0</text>
            </g>
          </g>
          <g class="tick" transform="translate(144 163.2)">
            <line x1="0" x2="0" y1="0" y2="5"/>
            <g transform="translate(0 6)">
              <text class="lab">1</text>
            </g>
          </g>
          <g class="tick" transform="translate(492.8 163.2)">
            <line x1="0" x2="0" y1="0" y2="5"/>
            <g transform="translate(0 6)">
              <text class="lab">5</text>
            </g>
          </g>
          <g class="tick" transform="translate(580 163.2)">
            <line x1="0" x2="0" y1="0" y2="5"/>
            <g transform="translate(0 6)">
              <text class="lab">6</text>
            </g>
          </g>
        </g>
      </g>
      <g class="y-axis">
        <g class="title" transform="translate(0 65.7)">
          <text class="lab" text-anchor="middle" transform="translate(11) rotate(-90)">Time</text>
        </g>
        <line class="ax-line" x1="56.8" x2="56.8" y1="121.4" y2="10"/>
        <g class="ticks">
          <g class="tick" transform="translate(56.8 121.4)">
            <line x1="0" x2="-5" y1="0" y2="0"/>
            <g transform="translate(-6 0)">
              <text class="lab" text-anchor="end">0</text>
            </g>
          </g>
          <g class="tick" transform="translate(56.8 111.94)">
            <line x1="0" x2="-5" y1="0" y2="0"/>
            <g transform="translate(-6 0)">
              <text class="lab" text-anchor="end">100</text>
            </g>
          </g>
          <g class="tick" transform="translate(56.8 93.02)">
            <line x1="0" x2="-5" y1="0" y2="0"/>
            <g transform="translate(-6 0)">
              <text class="lab" text-anchor="end">300</text>
            </g>
          </g>
          <g class="tick" transform="translate(56.8 64.64)">
            <line x1="0" x2="-5" y1="0" y2="0"/>
            <g transform="translate(-6 0)">
              <text class="lab" text-anchor="end">600</text>
            </g>
          </g>
          <g class="tick" transform="translate(56.8 26.8)">
            <line x1="0" x2="-5" y1="0" y2="0"/>
            <g transform="translate(-6 0)">
              <text class="lab" text-anchor="end">1000</text>
            </g>
          </g>
        </g>
      </g>
    </g>
    <g class="plotbox trees">
      <g class="tree t0" transform="translate(56.8 0)">
        <g class="plotbox">
          <g class="c2 node n6 root" transform="translate(87.2 26.8)">
            <g class="a6 c2 node n4" transform="translate(-33.6 66.22)">
              <g class="a4 leaf node n0 sample" transform="translate(-16.8 28.38)">
                <path class="edge" d="M 0 0 V -28.38 H 16.8"/>
                <rect class="sym" height="6" width="6" x="-3" y="-3"/>
                <text class="lab" transform="translate(0 11)">0</text>
              </g>
              <g class="a4 leaf node n1 sample" transform="translate(16.8 28.38)">
                <path class="edge" d="M 0 0 V -28.38 H -16.8"/>
                <rect class="sym" height="6" width="6" x="-3" y="-3"/>
                <text class="lab" transform="translate(0 11)">1</text>
              </g>
              <path class="edge" d="M 0 0 V -66.22 H 33.6"/>
              <circle class="sym" cx="0" cy="0" r="3"/>
              <text class="lab lft" transform="translate(-3 -7.0)">4</text>
            </g>
            <g class="a6 c2 node n5" transform="translate(33.6 66.22)">
              <g class="a5 leaf node n2 sample" transform="translate(-16.8 28.38)">
                <path class="edge" d="M 0 0 V -28.38 H 16.8"/>
                <rect class="sym" height="6" width="6" x="-3" y="-3"/>
                <text class="lab" transform="translate(0 11)">2</text>
              </g>
              <g class="a5 leaf node n3 sample" transform="translate(16.8 28.38)">
                <path class="edge" d="M 0 0 V -28.38 H -16.8"/>
                <rect class="sym" height="6" width="6" x="-3" y="-3"/>
                <text class="lab" transform="translate(0 11)">3</text>
              </g>
              <path class="edge" d="M 0 0 V -66.22 H -33.6"/>
              <circle class="sym" cx="0" cy="0" r="3"/>
              <text class="lab rgt" transform="translate(3 -7.0)">5</text>
            </g>
            <circle class="sym" cx="0" cy="0" r="3"/>
            <text class="lab" transform="translate(0 -11)">6</text>
          </g>
        </g>
      </g>
      <g class="tree t1" transform="translate(231.2 0)">
        <g class="plotbox">
          <g class="c2 node n6 root" transform="translate(108.2 26.8)">
            <g class="a6 c1 node n5" transform="translate(29.4 66.22)">
              <g class="a5 leaf node n3 sample" transform="translate(0.0 28.38)">
                <path class="edge" d="M 0 0 V -28.38 H 0.0"/>
                <rect class="sym" height="6" width="6" x="-3" y="-3"/>
                <text class="lab" transform="translate(0 11)">3</text>
              </g>
              <path class="edge" d="M 0 0 V -66.22 H -29.4"/>
              <circle class="sym" cx="0" cy="0" r="3"/>
              <text class="lab rgt" transform="translate(3 -7.0)">5</text>
            </g>
            <g class="a6 c2 node n7" transform="translate(-29.4 37.84)">
              <g class="a7 leaf node n2 sample" transform="translate(25.2 56.76)">
                <path class="edge" d="M 0 0 V -56.76 H -25.2"/>
                <rect class="sym" height="6" width="6" x="-3" y="-3"/>
                <text class="lab" transform="translate(0 11)">2</text>
              </g>
              <g class="a7 c2 node n4" transform="translate(-25.2 28.38)">
                <g class="a4 leaf node n0 sample" transform="translate(-16.8 28.38)">
                  <path class="edge" d="M 0 0 V -28.38 H 16.8"/>
                  <rect class="sym" height="6" width="6" x="-3" y="-3"/>
                  <text class="lab" transform="translate(0 11)">0</text>
                </g>
                <g class="a4 leaf node n1 sample" transform="translate(16.8 28.38)">
                  <path class="edge" d="M 0 0 V -28.38 H -16.8"/>
                  <rect class="sym" height="6" width="6" x="-3" y="-3"/>
                  <text class="lab" transform="translate(0 11)">1</text>
                </g>
                <path class="edge" d="M 0 0 V -28.38 H 25.2"/>
                <circle class="sym" cx="0" cy="0" r="3"/>
                <text class="lab lft" transform="translate(-3 -7.0)">4</text>
              </g>
              <path class="edge" d="M 0 0 V -37.84 H 29.4"/>
              <circle class="sym" cx="0" cy="0" r="3"/>
              <text class="lab lft" transform="translate(-3 -7.0)">7</text>
            </g>
            <circle class="sym" cx="0" cy="0" r="3"/>
            <text class="lab" transform="translate(0 -11)">6</text>
          </g>
        </g>
      </g>
      <g class="tree t2" transform="translate(405.6 0)">
        <g class="plotbox">
          <g class="c2 node n6 root" transform="translate(87.2 26.8)">
            <g class="a6 c2 node n5" transform="translate(33.6 66.22)">
              <g class="a5 leaf node n3 sample" transform="translate(16.8 28.38)">
                <path class="edge" d="M 0 0 V -28.38 H -16.8"/>
                <rect class="sym" height="6" width="6" x="-3" y="-3"/>
                <text class="lab" transform="translate(0 11)">3</text>
              </g>
              <g class="a5 leaf node n2 sample" transform="translate(-16.8 28.38)">
                <path class="edge" d="M 0 0 V -28.38 H 16.8"/>
                <rect class="sym" height="6" width="6" x="-3" y="-3"/>
                <text class="lab" transform="translate(0 11)">2</text>
              </g>
              <path class="edge" d="M 0 0 V -66.22 H -33.6"/>
              <circle class="sym" cx="0" cy="0" r="3"/>
              <text class="lab rgt" transform="translate(3 -7.0)">5</text>
            </g>
            <g class="a6 c2 node n4" transform="translate(-33.6 66.22)">
              <g class="a4 leaf node n1 sample" transform="translate(16.8 28.38)">
                <path class="edge" d="M 0 0 V -28.38 H -16.8"/>
                <rect class="sym" height="6" width="6" x="-3" y="-3"/>
                <text class="lab" transform="translate(0 11)">1</text>
              </g>
              <g class="a4 c1 node n9" transform="translate(-16.8 18.92)">
                <g class="a9 leaf node n0 sample" transform="translate(0.0 9.46)">
                  <path class="edge" d="M 0 0 V -9.46 H 0.0"/>
                  <rect class="sym" height="6" width="6" x="-3" y="-3"/>
                  <text class="lab" transform="translate(0 11)">0</text>
                </g>
                <path class="edge" d="M 0 0 V -18.92 H 16.8"/>
                <circle class="sym" cx="0" cy="0" r="3"/>
                <text class="lab lft" transform="translate(-3 -7.0)">9</text>
              </g>
              <path class="edge" d="M 0 0 V -66.22 H 33.6"/>
              <circle class="sym" cx="0" cy="0" r="3"/>
              <text class="lab lft" transform="translate(-3 -7.0)">4</text>
            </g>
            <circle class="sym" cx="0" cy="0" r="3"/>
            <text class="lab" transform="translate(0 -11)">6</text>
          </g>
        </g>
      </g>
    </g>
  </g>
</svg>
